<?xml version="1.0" encoding="UTF-8" standalone="no"?>
<!-- Created with Inkscape (http://www.inkscape.org/) -->

<svg
   xmlns:dc="http://purl.org/dc/elements/1.1/"
   xmlns:cc="http://creativecommons.org/ns#"
   xmlns:rdf="http://www.w3.org/1999/02/22-rdf-syntax-ns#"
   xmlns:svg="http://www.w3.org/2000/svg"
   xmlns="http://www.w3.org/2000/svg"
   xmlns:sodipodi="http://sodipodi.sourceforge.net/DTD/sodipodi-0.dtd"
   xmlns:inkscape="http://www.inkscape.org/namespaces/inkscape"
   width="80"
   height="80"
   viewBox="0 0 80 80"
   id="svg2"
   version="1.1"
   inkscape:version="0.91 r13725"
   sodipodi:docname="guillotine.svg">
  <defs
     id="defs4" />
  <sodipodi:namedview
     id="base"
     pagecolor="#ffffff"
     bordercolor="#666666"
     borderopacity="1.0"
     inkscape:pageopacity="0.0"
     inkscape:pageshadow="2"
     inkscape:zoom="1.8101934"
     inkscape:cx="-24.728257"
     inkscape:cy="81.092518"
     inkscape:document-units="px"
     inkscape:current-layer="layer1"
     showgrid="false"
     units="px"
     inkscape:window-width="1142"
     inkscape:window-height="927"
     inkscape:window-x="723"
     inkscape:window-y="297"
     inkscape:window-maximized="0" />
  <metadata
     id="metadata7">
    <rdf:RDF>
      <cc:Work
         rdf:about="">
        <dc:format>image/svg+xml</dc:format>
        <dc:type
           rdf:resource="http://purl.org/dc/dcmitype/StillImage" />
        <dc:title />
      </cc:Work>
    </rdf:RDF>
  </metadata>
  <g
     inkscape:label="Layer 1"
     inkscape:groupmode="layer"
     id="layer1"
     transform="translate(0,-972.36216)">
    <rect
       style="opacity:1;fill:#000000;fill-opacity:1;stroke:none;stroke-width:2;stroke-linecap:butt;stroke-linejoin:miter;stroke-miterlimit:4;stroke-dasharray:none;stroke-opacity:1"
       id="rect4155"
       width="5"
       height="80"
       x="12"
       y="972.36218"
       ry="0" />
    <rect
       ry="0"
       y="972.36218"
       x="63"
       height="80"
       width="5"
       id="rect4176"
       style="opacity:1;fill:#000000;fill-opacity:1;stroke:none;stroke-width:2;stroke-linecap:butt;stroke-linejoin:miter;stroke-miterlimit:4;stroke-dasharray:none;stroke-opacity:1" />
    <rect
       ry="0"
       y="-70"
       x="972.36218"
       height="60"
       width="10"
       id="rect4178"
       style="opacity:1;fill:#000000;fill-opacity:1;stroke:none;stroke-width:2;stroke-linecap:butt;stroke-linejoin:miter;stroke-miterlimit:4;stroke-dasharray:none;stroke-opacity:1"
       transform="matrix(0,1,-1,0,0,0)" />
    <rect
       ry="0"
       y="-60"
       x="985.36218"
       height="40"
       width="5"
       id="rect4182"
       style="opacity:1;fill:#000000;fill-opacity:1;stroke:none;stroke-width:2;stroke-linecap:butt;stroke-linejoin:miter;stroke-miterlimit:4;stroke-dasharray:none;stroke-opacity:1"
       transform="matrix(0,1,-1,0,0,0)" />
    <path
       style="opacity:1;fill:#000000;fill-opacity:1;stroke:none;stroke-width:2;stroke-linecap:butt;stroke-linejoin:miter;stroke-miterlimit:4;stroke-dasharray:none;stroke-opacity:1"
       d="m 60,989.3622 0,14.3935 -40,-11.50287 0,-2.8906 z"
       id="rect4186"
       inkscape:connector-curvature="0"
       sodipodi:nodetypes="ccccc" />
    <rect
       style="opacity:1;fill:#000000;fill-opacity:1;stroke:none;stroke-width:2;stroke-linecap:butt;stroke-linejoin:miter;stroke-miterlimit:4;stroke-dasharray:none;stroke-opacity:1"
       id="rect4189"
       width="4"
       height="10"
       x="38"
       y="977.36218"
       ry="0" />
    <path
       id="path4199"
       d="m 47.778375,1025.5838 c 2.07625,2.0762 3.221625,4.84 3.221625,7.7784 0,2.9383 -1.144,5.7008 -3.221625,7.7783 -2.07625,2.0763 -4.84,3.2217 -7.778375,3.2217 -2.938375,0 -5.70075,-1.144 -7.778375,-3.2217 C 30.145375,1039.0643 29,1036.3005 29,1033.3622 c 0,-2.9384 1.144,-5.7007 3.221625,-7.7784 2.07625,-2.0763 4.84,-3.2216 7.778375,-3.2216 2.938375,0 5.70075,1.144 7.778375,3.2216 m -0.972813,14.5819 c 1.355063,-1.3551 2.255688,-3.0422 2.626938,-4.8785 -0.289437,0.4263 -0.5665,0.5844 -0.737687,-0.3699 -0.176688,-1.5551 -1.605313,-0.5617 -2.503188,-1.1144 -0.945312,0.6373 -3.070375,-1.239 -2.709437,0.8772 0.556875,0.9543 3.007812,-1.2774 1.786125,0.7419 -0.779625,1.4093 -2.849688,4.532 -2.580188,6.1503 0.03368,2.3582 -2.409,0.4916 -3.251187,-0.2901 -0.5665,-1.5668 -0.193188,-4.3051 -1.673375,-5.0724 -1.607375,-0.07 -2.9865,-0.2158 -3.609375,-2.0123 -0.374688,-1.2856 0.39875,-3.199 1.7765,-3.4945 2.016437,-1.2671 2.73625,1.4835 4.627562,1.5345 0.587125,-0.6147 2.187625,-0.81 2.320313,-1.4988 -1.240938,-0.2187 1.574375,-1.043 -0.118938,-1.5118 -0.933625,0.11 -1.535875,0.9686 -1.0395,1.6961 -1.8095,0.422 -1.867937,-2.6188 -3.607312,-1.6597 -0.044,1.5167 -2.84075,0.4916 -0.967313,0.1842 0.6435,-0.2811 -1.049812,-1.0958 -0.13475,-0.9481 0.449625,-0.025 1.962125,-0.5547 1.553063,-0.9109 0.842187,-0.5231 1.550312,1.2527 2.374624,-0.041 0.595375,-0.994 -0.249562,-1.1776 -0.9955,-0.6737 -0.42075,-0.4709 0.7425,-1.4884 1.768938,-1.9278 0.341688,-0.1464 0.668938,-0.2261 0.9185,-0.2035 0.517,0.5968 1.472625,0.7006 1.522813,-0.072 -1.280125,-0.6132 -2.691563,-0.937 -4.1525,-0.937 -2.097563,0 -4.092001,0.6662 -5.742688,1.8989 0.443438,0.2035 0.69575,0.4565 0.268125,0.7796 -0.332063,0.9893 -1.679562,2.3175 -2.862063,2.1299 -0.613937,1.0587 -1.018875,2.2261 -1.191437,3.4512 0.990687,0.3279 1.218938,0.9763 1.0065,1.1935 -0.504625,0.44 -0.814688,1.0643 -0.974875,1.747 0.322438,1.9731 1.249875,3.7915 2.691563,5.2333 1.81775,1.8177 4.235,2.8187 6.805562,2.8187 2.570562,0 4.987812,-1.001 6.805563,-2.8187 z"
       inkscape:connector-curvature="0"
       style="fill:#8a0707;fill-opacity:1" />
    <path
       style="opacity:1;fill:#000000;fill-opacity:1;stroke:none;stroke-width:1;stroke-linecap:butt;stroke-linejoin:round;stroke-miterlimit:4;stroke-dasharray:none;stroke-opacity:1"
       d="m 12,1018.3622 0,30 56,0 0,-30 -56,0 z m 28,2 a 13,13 0 0 1 13,13 13,13 0 0 1 -13,13 13,13 0 0 1 -13,-13 13,13 0 0 1 13,-13 z"
       id="rect4149"
       inkscape:connector-curvature="0" />
  </g>
</svg>
