<svg version="1.1" xmlns="http://www.w3.org/2000/svg" width="24" height="24" fill="#444" viewBox="0 0 24 24">
<title>loop2</title>
<path d="M20.852 3.898c-2.194-2.396-5.347-3.898-8.852-3.898-6.627 0-12 5.373-12 12h2.25c0-5.385 4.365-9.75 9.75-9.75 2.883 0 5.474 1.252 7.258 3.242l-3.509 3.508h8.25v-8.25l-3.148 3.148z"></path>
<path d="M21.75 12c0 5.385-4.365 9.75-9.75 9.75-2.883 0-5.474-1.252-7.258-3.242l3.508-3.508h-8.25v8.25l3.148-3.148c2.194 2.396 5.347 3.898 8.852 3.898 6.627 0 12-5.373 12-12h-2.25z"></path>
</svg>
